<?xml version="1.0" standalone="no"?>
<!DOCTYPE svg PUBLIC "-//W3C//DTD SVG 20010904//EN"
 "http://www.w3.org/TR/2001/REC-SVG-20010904/DTD/svg10.dtd">
<svg version="1.0" xmlns="http://www.w3.org/2000/svg"
 width="185.000000pt" height="185.000000pt" viewBox="0 0 185.000000 185.000000"
 preserveAspectRatio="xMidYMid meet">
<metadata>
Created by potrace 1.16, written by Peter Selinger 2001-2019
</metadata>
<g transform="translate(0.000000,185.000000) scale(0.020109,-0.019957)"
fill="#000000" stroke="none">
<path d="M4210 9255 c-887 -80 -1689 -391 -2395 -928 -384 -293 -760 -694
-1032 -1102 -632 -948 -891 -2065 -743 -3203 279 -2139 2019 -3812 4157 -3996
1262 -109 2489 296 3438 1135 571 504 1013 1150 1278 1869 359 972 379 2062
55 3060 -319 983 -984 1855 -1848 2423 -622 408 -1275 644 -2030 733 -190 22
-680 27 -880 9z m726 -135 c664 -52 1308 -252 1874 -580 352 -205 632 -421
925 -714 361 -362 638 -748 855 -1191 290 -595 440 -1210 457 -1875 38 -1514
-674 -2925 -1917 -3798 -171 -120 -362 -232 -575 -337 -470 -232 -912 -362
-1470 -432 -201 -25 -769 -25 -975 0 -890 109 -1645 430 -2340 995 -153 125
-499 475 -624 632 -541 680 -855 1424 -967 2293 -27 208 -37 646 -20 867 90
1184 628 2266 1511 3044 458 403 988 705 1570 895 312 101 648 168 1000 200
137 12 546 13 696 1z"/>
<path d="M4350 8983 c-614 -42 -1138 -182 -1660 -442 -1360 -680 -2264 -2027
-2381 -3545 -17 -220 -6 -687 21 -886 145 -1080 650 -2025 1460 -2734 467
-409 1068 -732 1665 -895 1006 -276 2064 -181 3001 268 512 247 984 605 1365
1039 553 629 896 1368 1033 2222 65 404 59 949 -14 1381 -233 1371 -1111 2549
-2355 3161 -597 293 -1248 442 -1904 436 -103 -1 -206 -3 -231 -5z m730 -397
c1006 -133 1883 -615 2536 -1396 373 -446 654 -1002 794 -1575 85 -345 113
-587 114 -955 0 -296 -14 -457 -60 -710 -175 -967 -697 -1827 -1474 -2430
-1027 -798 -2399 -1030 -3635 -615 -971 326 -1798 1044 -2257 1958 -225 449
-354 892 -410 1402 -19 179 -16 653 6 835 79 652 294 1242 643 1762 674 1005
1746 1637 2953 1742 120 10 671 -2 790 -18z"/>
<path d="M4606 7269 c-91 -19 -174 -64 -241 -133 -52 -53 -75 -88 -128 -198
-62 -126 -225 -490 -371 -828 -37 -85 -71 -161 -76 -169 -7 -12 -17 -8 -52 20
-246 200 -1619 1279 -1626 1279 -15 0 -185 -182 -270 -289 -103 -129 -263
-362 -260 -377 4 -15 3007 -3394 3017 -3394 4 0 183 197 397 438 214 240 517
581 674 757 507 568 1086 1219 1504 1690 225 253 420 472 434 487 l26 28 -57
82 c-79 118 -213 282 -343 422 -162 176 -135 165 -229 91 -217 -172 -1601
-1245 -1605 -1245 -3 0 -21 44 -40 98 -61 175 -137 347 -199 453 -126 212
-147 399 -55 480 59 51 185 77 302 62 39 -5 72 -7 72 -3 0 23 -33 112 -50 133
-25 31 -124 65 -286 97 -124 25 -452 37 -538 19z"/>
<path d="M1388 6243 c-248 -518 -358 -968 -374 -1538 l-6 -200 43 41 c24 22
118 108 208 190 617 560 896 815 899 823 2 5 -95 126 -215 268 -120 143 -274
328 -343 411 -69 83 -129 151 -133 151 -4 1 -40 -65 -79 -146z"/>
<path d="M7390 5975 c-190 -227 -343 -417 -341 -421 2 -5 83 -81 180 -169 97
-88 353 -321 568 -518 216 -196 395 -357 399 -357 9 0 -5 324 -22 493 -35 355
-125 707 -262 1027 -58 136 -165 359 -172 359 -3 0 -160 -186 -350 -414z"/>
<path d="M1719 5018 c-282 -249 -556 -491 -608 -538 l-94 -85 2 -85 c8 -324
120 -765 279 -1104 l37 -79 146 159 c228 250 778 852 1052 1154 138 151 261
287 275 301 l24 27 -139 164 c-76 91 -208 249 -293 351 -85 102 -158 186 -162
186 -4 1 -237 -203 -519 -451z"/>
<path d="M6675 5122 c-159 -191 -290 -352 -290 -359 0 -6 155 -182 345 -390
190 -208 513 -562 719 -788 464 -509 419 -463 431 -445 20 30 113 258 151 370
85 246 143 534 155 770 l6 115 -257 225 c-140 124 -284 250 -319 280 -68 59
-123 108 -438 388 -114 100 -208 182 -210 182 -2 -1 -133 -157 -293 -348z"/>
<path d="M2136 3858 l-755 -823 46 -85 c72 -135 189 -314 299 -460 111 -147
264 -324 279 -324 11 0 96 104 755 924 250 311 510 635 579 720 68 85 129 161
134 167 6 9 -74 113 -279 358 -159 190 -292 345 -296 345 -4 0 -347 -370 -762
-822z"/>
<path d="M6018 4336 c-159 -189 -288 -347 -288 -351 0 -7 172 -224 456 -575
60 -74 249 -308 419 -520 531 -661 587 -730 596 -730 12 0 141 146 234 265
159 204 394 578 382 607 -4 12 -173 197 -1216 1333 -156 171 -287 311 -290
312 -3 2 -135 -152 -293 -341z"/>
<path d="M3785 3593 c-60 -87 -242 -351 -405 -588 -431 -625 -786 -1141 -836
-1213 -24 -35 -44 -67 -44 -73 0 -14 173 -125 316 -204 701 -384 1579 -535
2378 -410 481 75 982 266 1364 518 70 47 133 91 139 98 11 14 -10 45 -683
1014 -30 44 -174 251 -319 460 -373 537 -386 556 -395 553 -8 -3 -110 -116
-499 -551 -107 -119 -198 -217 -202 -217 -4 0 -161 173 -349 385 -188 212
-346 385 -349 385 -4 0 -56 -71 -116 -157z"/>
</g>
</svg>
